HIERARCHY
ROOT Hips
{
	OFFSET 0.000000 0.000000 0.000000
	CHANNELS 6 Xposition Yposition Zposition Zrotation Yrotation Xrotation 
	JOINT LHipJoint
	{
		OFFSET 0.000000 0.000000 0.000000
		CHANNELS 3 Zrotation Yrotation Xrotation
		JOINT LeftUpLeg
		{
			OFFSET 1.363060 -1.794630 0.839290
			CHANNELS 3 Zrotation Yrotation Xrotation
			JOINT LeftLeg
			{
				OFFSET 2.448110 -6.726130 0.000000
				CHANNELS 3 Zrotation Yrotation Xrotation
				JOINT LeftFoot
				{
					OFFSET 2.562200 -7.039590 0.000000
					CHANNELS 3 Zrotation Yrotation Xrotation
					JOINT LeftToeBase
					{
						OFFSET 0.157640 -0.433110 2.322550
						CHANNELS 3 Zrotation Yrotation Xrotation
						End Site
						{
							OFFSET 0.000000 0.000000 0.000000
						}
					}
				}
			}
		}
	}
	JOINT RHipJoint
	{
		OFFSET 0.000000 0.000000 0.000000
		CHANNELS 3 Zrotation Yrotation Xrotation
		JOINT RightUpLeg
		{
			OFFSET -1.305520 -1.794630 0.839290
			CHANNELS 3 Zrotation Yrotation Xrotation
			JOINT RightLeg
			{
				OFFSET -2.542530 -6.985550 0.000000
				CHANNELS 3 Zrotation Yrotation Xrotation
				JOINT RightFoot
				{
					OFFSET -2.568260 -7.056230 0.000000
					CHANNELS 3 Zrotation Yrotation Xrotation
					JOINT RightToeBase
					{
						OFFSET -0.164730 -0.452590 2.363150
						CHANNELS 3 Zrotation Yrotation Xrotation
						End Site
						{
							OFFSET 0.000000 0.000000 0.000000
						}
					}
				}
			}
		}
	}
	JOINT LowerBack
	{
		OFFSET 0.000000 0.000000 0.000000
		CHANNELS 3 Zrotation Yrotation Xrotation
		JOINT Spine
		{
			OFFSET 0.028270 2.035590 -0.193380
			CHANNELS 3 Zrotation Yrotation Xrotation
			JOINT Spine1
			{
				OFFSET 0.056720 2.048850 -0.042750
				CHANNELS 3 Zrotation Yrotation Xrotation
				JOINT Neck
				{
					OFFSET 0.000000 0.000000 0.000000
					CHANNELS 3 Zrotation Yrotation Xrotation
					JOINT Neck1
					{
						OFFSET -0.054170 1.746240 0.172020
						CHANNELS 3 Zrotation Yrotation Xrotation
						JOINT Head
						{
							OFFSET 0.104070 1.761360 -0.123970
							CHANNELS 3 Zrotation Yrotation Xrotation
							End Site
							{
								OFFSET 0.000000 0.000000 0.000000
							}
						}
					}
				}
				JOINT LeftShoulder
				{
					OFFSET 0.000000 0.000000 0.000000
					CHANNELS 3 Zrotation Yrotation Xrotation
					JOINT LeftArm
					{
						OFFSET 3.362410 1.200890 -0.311210
						CHANNELS 3 Zrotation Yrotation Xrotation
						JOINT LeftForeArm
						{
							OFFSET 4.983000 -0.000000 -0.000000
							CHANNELS 3 Zrotation Yrotation Xrotation
							JOINT LeftHand
							{
								OFFSET 3.483560 -0.000000 -0.000000
								CHANNELS 3 Zrotation Yrotation Xrotation
								JOINT LeftFingerBase
								{
									OFFSET 0.000000 0.000000 0.000000
									CHANNELS 3 Zrotation Yrotation Xrotation
									JOINT LeftHandIndex1
									{
										OFFSET 0.715260 -0.000000 -0.000000
										CHANNELS 3 Zrotation Yrotation Xrotation
										End Site
										{
											OFFSET 0.000000 0.000000 0.000000
										}
									}
								}
								JOINT LThumb
								{
									OFFSET 0.000000 0.000000 0.000000
									CHANNELS 3 Zrotation Yrotation Xrotation
									End Site
									{
										OFFSET 0.000000 0.000000 0.000000
									}
								}
							}
						}
					}
				}
				JOINT RightShoulder
				{
					OFFSET 0.000000 0.000000 0.000000
					CHANNELS 3 Zrotation Yrotation Xrotation
					JOINT RightArm
					{
						OFFSET -3.136600 1.374050 -0.404650
						CHANNELS 3 Zrotation Yrotation Xrotation
						JOINT RightForeArm
						{
							OFFSET -5.241900 -0.000000 -0.000000
							CHANNELS 3 Zrotation Yrotation Xrotation
							JOINT RightHand
							{
								OFFSET -3.444170 -0.000000 -0.000000
								CHANNELS 3 Zrotation Yrotation Xrotation
								JOINT RightFingerBase
								{
									OFFSET 0.000000 0.000000 0.000000
									CHANNELS 3 Zrotation Yrotation Xrotation
									JOINT RightHandIndex1
									{
										OFFSET -0.622530 -0.000000 -0.000000
										CHANNELS 3 Zrotation Yrotation Xrotation
										End Site
										{
											OFFSET 0.000000 0.000000 0.000000
										}
									}
								}
								JOINT RThumb
								{
									OFFSET 0.000000 0.000000 0.000000
									CHANNELS 3 Zrotation Yrotation Xrotation
									End Site
									{
										OFFSET 0.000000 0.000000 0.000000
									}
								}
							}
						}
					}
				}
			}
		}
	}
}
MOTION
Frames: 8
Frame Time: 0.008333
11.154150 15.876706 19.452263 148.174833 82.367846 169.359748 9.660886 0.549095 -2.322098 -22.537715 -20.121613 -38.358956 7.773838 20.384815 57.787796 1.330626 -16.937383 -33.795454 0.130300 -2.326400 -6.408500 -14.480597 -2.007504 -1.002098 22.531853 25.645577 -40.775035 -7.788917 -21.729380 58.936243 -4.248227 -3.729233 -41.854168 -2.672100 10.144300 -29.445400 -1.894137 1.480174 -15.998057 0.626875 1.838296 -5.574500 0.808299 1.136576 8.217309 -23.756608 0.011740 5.292632 30.612396 -3.110277 -13.048520 13.909400 -2.044400 -6.208100 16.811463 -2.283705 -0.503962 -80.415707 15.602430 24.709613 14.084632 -18.692789 -2.966877 -1.703432 1.519556 -2.874105 22.319333 -22.286087 -10.135300 -7.125000 0.000000 0.000000 -3.262400 4.309800 3.013000 -12.257793 -1.851633 -0.627024 89.551474 4.652534 15.717107 -11.437250 21.057177 -2.983897 1.181798 3.529285 12.299743 -5.056078 -48.110855 4.290300 7.125000 0.000000 0.000000 66.040500 -72.882300 -48.846200 
11.090525 15.691069 19.478455 154.339953 81.006338 176.127062 9.687710 0.390506 -2.373856 -21.158506 -21.384275 -40.628777 8.690368 21.198749 60.788708 1.846603 -16.441201 -35.665365 0.895300 -6.030600 -16.873100 -14.594424 -2.026790 -0.906839 21.478013 27.044935 -45.040954 -9.790451 -23.261459 65.016045 -4.276352 -5.160306 -42.260056 -2.900000 10.531300 -30.715000 -1.793669 1.675771 -15.733833 0.517261 2.146442 -5.595886 0.377651 1.293010 8.009946 -23.095948 -0.559150 5.610770 30.605707 -3.723989 -13.999430 13.873400 -2.392900 -6.433200 16.721912 -2.361266 -0.413167 -81.481529 13.959050 24.486365 14.024874 -18.483193 -2.921298 -1.704063 1.514848 -2.552911 22.329407 -21.990271 -10.023000 -7.125000 0.000000 0.000000 -3.214600 4.631800 2.949300 -12.259883 -1.854452 -0.636145 90.557421 5.012219 14.820885 -11.010660 20.420483 -2.812019 1.317261 3.480993 13.968534 -5.607166 -48.082624 4.750000 7.125000 0.000000 0.000000 65.580300 -73.081700 -48.662300 
11.011839 15.536753 19.512832 156.950994 79.370294 178.814106 9.880679 0.257902 -2.299734 -18.924036 -25.502875 -43.201307 9.987481 22.008060 64.727362 -0.585133 -24.450527 -30.486872 2.240900 9.350900 26.899200 -14.583382 -2.027743 -0.965610 20.583113 27.094840 -47.947810 -11.625203 -24.262113 70.201616 -4.134223 -6.829544 -42.055286 -3.637700 11.662000 -34.546600 -2.108661 1.721340 -14.759752 0.389841 2.322459 -5.519202 0.050978 1.368315 7.776548 -22.516175 -1.211989 5.670662 30.665528 -4.383534 -14.898694 13.849300 -2.742000 -6.569700 16.624469 -2.439426 -0.310489 -82.608555 12.069221 24.655882 13.910283 -18.169730 -2.847848 -1.753703 1.480858 -2.611576 22.774281 -21.445508 -10.017900 -7.125000 0.000000 0.000000 -2.841700 5.152900 2.578200 -12.265002 -1.810065 -0.644737 91.588847 5.628328 13.889400 -10.688292 19.908590 -2.683448 1.428961 3.467335 15.714256 -5.607478 -48.680595 4.789100 7.125000 0.000000 0.000000 67.540800 -73.300400 -50.667100 
10.936537 15.392805 19.552994 158.007252 77.817011 179.799680 9.965558 0.291717 -2.345901 -18.982197 -26.784513 -46.010230 11.368970 23.149905 68.619024 2.941358 -9.895133 -36.918834 6.316200 -14.728000 -46.238100 -14.519304 -2.064637 -1.008404 19.709918 26.346553 -50.365329 -13.088945 -24.887181 74.184941 -3.890941 -7.711264 -41.138060 -4.162000 12.372900 -37.064100 -2.594757 1.596320 -13.771353 0.341942 2.274523 -5.415691 -0.027231 1.322469 7.682757 -22.234473 -1.697955 5.598591 30.667587 -4.848313 -15.691629 13.853200 -2.963100 -6.699000 16.500079 -2.494721 -0.203811 -84.173980 10.272337 24.230054 13.648682 -17.657845 -2.715572 -1.743818 1.548476 -2.167310 22.540818 -21.771331 -10.064100 -7.125000 0.000000 0.000000 -3.030400 4.793600 2.770500 -12.232806 -1.779466 -0.661974 92.065537 6.149354 14.863945 -10.471855 19.566422 -2.598773 1.494899 3.481540 15.938572 -6.338783 -49.158339 5.442100 7.125000 0.000000 0.000000 68.763500 -73.745700 -52.283100 
10.875858 15.289783 19.610726 158.426067 76.642731 179.175147 10.027235 0.353819 -2.373227 -19.105032 -27.405427 -47.061065 12.419418 23.652805 71.435293 3.229066 -6.198476 -36.344131 9.094900 -16.868400 -56.417800 -14.484694 -2.031746 -1.081019 19.607471 26.124730 -50.684877 -14.162613 -25.151479 77.031212 -3.782934 -7.562875 -40.382847 -4.066100 12.247800 -36.614300 -3.195218 1.575114 -11.945809 0.262547 2.351902 -5.157056 -0.079087 1.324449 7.590358 -21.854850 -2.151344 5.556628 30.660739 -5.286503 -16.401939 13.816300 -3.180600 -6.827900 16.398890 -2.583523 -0.092095 -85.409692 8.542559 24.562246 13.405488 -17.180758 -2.602581 -1.729488 1.612550 -1.977624 22.215370 -22.118178 -10.069600 -7.125000 0.000000 0.000000 -3.285300 4.426500 3.027100 -12.211465 -1.727725 -0.657076 92.441393 6.514267 17.149516 -10.406987 19.446736 -2.561221 1.474114 3.454774 14.830137 -7.144700 -48.359459 6.066700 7.125000 0.000000 0.000000 65.523200 -73.783800 -49.398500 
10.810923 15.188834 19.664529 159.620490 75.356348 179.736394 10.082550 0.361009 -2.357658 -18.412853 -28.873941 -48.102076 13.211239 23.948802 73.689781 2.841655 -8.583923 -35.642885 8.220300 -16.278900 -53.352500 -14.435350 -2.038706 -1.183767 19.583293 25.029805 -51.420063 -14.795680 -25.292321 78.710164 -3.554914 -7.504070 -39.163646 -4.159200 12.369300 -37.051300 -3.492125 1.617900 -10.694807 0.138162 2.488205 -4.905176 -0.436409 1.367649 7.760093 -21.186060 -2.706725 5.588792 30.762549 -5.836169 -17.156856 13.770900 -3.488300 -6.981100 16.332424 -2.699150 0.009659 -86.199485 6.734296 25.798223 13.270596 -16.875609 -2.544655 -1.713509 1.642499 -2.136799 21.801080 -22.291886 -9.949000 -7.125000 0.000000 0.000000 -3.578400 4.284000 3.307700 -12.229745 -1.692970 -0.650069 93.115398 6.861727 19.003499 -10.562502 19.662670 -2.604838 1.419210 3.423878 14.076598 -7.115949 -47.724159 5.989900 7.125000 0.000000 0.000000 63.344400 -73.519200 -47.173500 
10.759958 15.110258 19.717022 161.847003 74.072065 -178.880830 10.089604 0.351218 -2.361661 -17.792019 -29.770082 -48.390877 13.676680 24.071611 75.020107 2.501742 -10.559893 -35.095950 7.437100 -15.689200 -50.508900 -14.430989 -2.049339 -1.261237 20.250264 24.347223 -51.188412 -15.193895 -25.329408 79.768560 -3.447188 -8.080883 -38.882018 -4.573600 12.886900 -38.946700 -3.547213 1.700782 -9.437723 0.115953 2.598945 -4.631216 -0.592770 1.402917 7.977234 -20.606029 -3.146870 5.736330 30.786844 -6.279971 -17.942887 13.738200 -3.739800 -7.215100 16.286160 -2.820720 0.105151 -87.137193 5.078671 27.196222 13.226818 -16.744106 -2.543917 -1.571976 1.692771 -2.460799 19.860783 -22.804124 -9.189800 -7.125000 0.000000 0.000000 -4.929300 4.043600 4.586700 -12.228141 -1.668867 -0.637855 93.604418 7.126405 20.379570 -10.821560 20.020756 -2.693615 1.390805 3.422751 13.686087 -7.107411 -47.741690 5.981900 7.125000 0.000000 0.000000 63.370300 -73.517600 -47.194500 
10.723289 15.041831 19.770061 164.849656 72.876085 -176.421279 10.073798 0.313953 -2.392232 -16.839157 -30.062470 -48.688039 13.908103 24.126465 75.700718 2.204603 -12.302310 -34.705134 6.722900 -15.094000 -47.818300 -14.466115 -2.082107 -1.286868 21.238886 24.102829 -50.896701 -15.426509 -25.361238 80.397796 -3.409787 -9.143319 -39.252387 -5.045100 13.434400 -41.017200 -3.338573 1.771898 -8.745211 0.200515 2.637440 -4.425876 -0.544727 1.406030 8.275369 -20.299391 -3.446433 5.881490 30.787732 -6.615659 -18.547785 13.743800 -3.918200 -7.410600 16.253620 -2.912641 0.174186 -88.353990 3.771834 28.367209 13.279601 -16.690466 -2.530475 -1.874740 1.526636 -2.742107 23.085231 -21.165896 -10.114400 -7.125000 0.000000 0.000000 -2.549200 5.324800 2.304000 -12.197620 -1.667909 -0.630560 93.761191 7.263685 21.751638 -11.050882 20.329175 -2.766412 1.347288 3.426491 13.311414 -6.846549 -47.636645 5.753100 7.125000 0.000000 0.000000 63.195100 -73.370900 -46.878800 
